<?xml version="1.0" encoding="UTF-8"?>
<svg version="1.1" xmlns="http://www.w3.org/2000/svg" width="600" height="400">
<path d="M0 0 C2.86340415 2.03857639 5.18428806 4.42252547 7.5625 7 C8.18962891 7.64195313 8.81675781 8.28390625 9.46289062 8.9453125 C14 13.67538509 14 13.67538509 14 16 C14.66 16 15.32 16 16 16 C16 16.66 16 17.32 16 18 C16.66 18 17.32 18 18 18 C18 18.66 18 19.32 18 20 C18.66 20 19.32 20 20 20 C21.35083008 21.38305664 21.35083008 21.38305664 22.95703125 23.34765625 C25.86374798 26.7693158 28.90905263 29.9374708 32.13671875 33.05859375 C33.04357422 33.93966797 33.95042969 34.82074219 34.88476562 35.72851562 C36.75737842 37.5384905 38.6376533 39.34057068 40.52539062 41.13476562 C45.27497629 45.77586682 48.9845698 49.70559569 51.17016602 56.04858398 C52.77854902 59.83081562 55.95792812 62.34132974 59 65 C59.56203125 65.49371094 60.1240625 65.98742187 60.703125 66.49609375 C61.95839585 67.59036247 63.21785998 68.67983127 64.48046875 69.765625 C68.67480426 73.48525277 72.73691171 77.34835781 76.80859375 81.20141602 C77.74832031 82.08591431 77.74832031 82.08591431 78.70703125 82.98828125 C79.2688208 83.51977783 79.83061035 84.05127441 80.40942383 84.59887695 C82.15697566 86.2012489 82.15697566 86.2012489 85 88 C85 88.66 85 89.32 85 90 C85.57234375 90.2578125 86.1446875 90.515625 86.734375 90.78125 C89.21128995 92.11365942 91.1341166 93.65056118 93.25 95.5 C93.95640625 96.1084375 94.6628125 96.716875 95.390625 97.34375 C97 99 97 99 97 101 C97.57234375 101.25523437 98.1446875 101.51046875 98.734375 101.7734375 C101.24173733 103.13087159 103.1330456 104.71974104 105.25 106.625 C106.30960938 107.57246094 106.30960938 107.57246094 107.390625 108.5390625 C107.92171875 109.02117187 108.4528125 109.50328125 109 110 C111.95803481 108.6512925 114.20796367 107.10431451 116.625 104.9375 C121.13233197 100.9123935 124.12518501 100.63698498 130.140625 100.73828125 C138.49420753 101.50288512 144.80650272 107.73123168 151.14453125 112.7578125 C153.9691599 115.03547458 153.9691599 115.03547458 157 117 C157.18175781 116.45730469 157.36351562 115.91460937 157.55078125 115.35546875 C157.80214844 114.64003906 158.05351562 113.92460937 158.3125 113.1875 C158.55613281 112.47980469 158.79976562 111.77210938 159.05078125 111.04296875 C160.10258193 108.77921666 161.04495408 107.54639024 163 106 C166.01750307 105.0389215 168.79312639 104.86388443 171.94873047 104.83886719 C172.93009979 104.82925964 173.91146912 104.8196521 174.9225769 104.80975342 C176.50390915 104.8033786 176.50390915 104.8033786 178.1171875 104.796875 C179.75205612 104.78832489 179.75205612 104.78832489 181.41995239 104.77960205 C183.72478263 104.77016067 186.02962631 104.7636215 188.33447266 104.75976562 C191.85473211 104.7500559 195.37440867 104.71902202 198.89453125 104.6875 C201.13541321 104.68097003 203.37629933 104.67571953 205.6171875 104.671875 C206.66736053 104.6595282 207.71753357 104.6471814 208.79953003 104.63446045 C214.27995276 104.651113 218.2928331 104.84771537 223 108 C224.98789991 110.50648249 225.0045232 111.78288662 224.9375 115 C224 118 224 118 222.0625 120.4375 C217.00141133 123.0196881 212.07634263 121.67720482 206.6887207 120.49121094 C203.92310034 119.98595096 201.28859401 119.7934087 198.48046875 119.68359375 C197.55903076 119.64548584 196.63759277 119.60737793 195.68823242 119.56811523 C194.53299072 119.52501221 193.37774902 119.48190918 192.1875 119.4375 C188.495625 119.293125 184.80375 119.14875 181 119 C180.34 129.23 179.68 139.46 179 150 C181.289375 149.835 183.57875 149.67 185.9375 149.5 C192.03831235 149.10956842 198.13719221 148.84060947 204.25 148.75 C205.32109009 148.7180957 205.32109009 148.7180957 206.41381836 148.68554688 C209.49485182 148.66489108 211.69443498 148.8423518 214.453125 150.265625 C216.29372062 152.32932312 216.54146424 153.26336014 216.5 156 C216.51546875 157.0209375 216.51546875 157.0209375 216.53125 158.0625 C215.74720984 160.92194057 214.56249145 161.53407251 212 163 C209.37854506 163.25630289 207.00473833 163.3506943 204.390625 163.29296875 C203.66381531 163.28872391 202.93700562 163.28447906 202.18817139 163.28010559 C199.87506496 163.2633613 197.56284145 163.22571885 195.25 163.1875 C193.67839803 163.17244758 192.10678236 163.15876015 190.53515625 163.14648438 C186.68976585 163.11347195 182.84503244 163.06172056 179 163 C179.26103931 167.09379545 179.52768584 171.1871829 179.79956055 175.28027344 C179.89127773 176.67307602 179.98145532 178.06598086 180.07006836 179.45898438 C180.19761942 181.4598971 180.3311462 183.46042608 180.46484375 185.4609375 C180.543396 186.66540527 180.62194824 187.86987305 180.70288086 189.11083984 C180.82164384 191.93776073 180.82164384 191.93776073 182 194 C185.5624827 194.02913821 189.12493454 194.04684529 192.6875 194.0625 C193.69490234 194.07087891 194.70230469 194.07925781 195.74023438 194.08789062 C196.71669922 194.09111328 197.69316406 194.09433594 198.69921875 194.09765625 C199.59471436 194.10289307 200.49020996 194.10812988 201.4128418 194.11352539 C204.04117785 193.9981931 206.43436824 193.56388399 209 193 C214.14033215 192.43777617 217.74915405 192.14942475 222.125 195.125 C224 198 224 198 224.8125 200.875 C223.5580689 205.699735 220.04289748 208.25602541 216 211 C215.34 211 214.68 211 214 211 C207.36727869 226.81648928 205.54586988 241.45017732 211.80859375 257.59765625 C213.04636465 261.13240528 213.74177103 264.26458437 214 268 C211.06329114 273.46835443 211.06329114 273.46835443 208 275 C203.64807662 275.49267057 201.70017992 275.51752429 198.125 272.875 C195.70470134 269.60047829 195.22657388 268.03494339 195 264 C195.88850981 261.50017336 196.83528793 259.20974325 197.9375 256.8125 C203.03682203 244.53480148 203.01354793 229.39976257 198 217 C197.01501738 215.65553467 196.01769936 214.3198734 195 213 C195 212.34 195 211.68 195 211 C191.73046154 209.91015385 189.19933353 209.82707245 185.7578125 209.75390625 C183.91123047 209.70459961 183.91123047 209.70459961 182.02734375 209.65429688 C179.4336786 209.59328473 176.83992373 209.53597023 174.24609375 209.48242188 C173.01246094 209.44826172 171.77882812 209.41410156 170.5078125 209.37890625 C169.38004395 209.3538501 168.25227539 209.32879395 167.09033203 209.30297852 C163.77232283 208.97767836 160.44676649 208.44676649 158 206 C157.91368126 204.65732587 157.89293527 203.31025678 157.90234375 201.96484375 C157.90556641 201.15595703 157.90878906 200.34707031 157.91210938 199.51367188 C157.92048828 198.66353516 157.92886719 197.81339844 157.9375 196.9375 C157.94201172 196.08349609 157.94652344 195.22949219 157.95117188 194.34960938 C157.96299627 192.23304337 157.98093231 190.11651315 158 188 C157.19175781 188.66128906 156.38351563 189.32257813 155.55078125 190.00390625 C154.47198197 190.85756481 153.39251969 191.71038599 152.3125 192.5625 C151.78205078 193.00013672 151.25160156 193.43777344 150.70507812 193.88867188 C148.24523985 195.80523298 146.59407755 196.98555435 143.4296875 197.0625 C140.26864409 195.68017877 138.29156344 193.83600304 135.8125 191.4375 C131.32996223 187.19248801 126.71669355 183.32464456 121.80078125 179.59375 C121.20652344 179.0678125 120.61226562 178.541875 120 178 C120 177.34 120 176.68 120 176 C119.42507812 175.75378906 118.85015625 175.50757813 118.2578125 175.25390625 C115.64360173 173.80206947 113.93663792 172.09712451 111.875 169.9375 C109.22095 167.08428067 109.22095 167.08428067 106 165 C106 164.34 106 163.68 106 163 C105.34 163 104.68 163 104 163 C101.48177209 160.50037969 99.2740243 157.72170693 97 155 C96.236875 154.13375 95.47375 153.2675 94.6875 152.375 C91.08395708 147.303347 90.58258497 142.78391364 91.30859375 136.74609375 C92.57882516 131.70105036 95.27215765 127.38790544 98 123 C93.88432918 118.76857594 89.65531724 114.75126748 85.18359375 110.8984375 C81.83960727 107.99114335 78.57267161 104.99931235 75.296875 102.015625 C73.06085025 99.98573474 73.06085025 99.98573474 70.703125 98.359375 C70.14109375 97.91078125 69.5790625 97.4621875 69 97 C69 96.34 69 95.68 69 95 C68.42765625 94.7421875 67.8553125 94.484375 67.265625 94.21875 C64.78871005 92.88634058 62.8658834 91.34943882 60.75 89.5 C60.04359375 88.8915625 59.3371875 88.283125 58.609375 87.65625 C57 86 57 86 57 84 C56.44570312 83.77441406 55.89140625 83.54882812 55.3203125 83.31640625 C52.31493845 81.61133714 50.27012997 79.42200049 47.875 76.9375 C44.75894235 73.53546517 44.75894235 73.53546517 41 71 C41 70.34 41 69.68 41 69 C40.14728516 68.87044922 40.14728516 68.87044922 39.27734375 68.73828125 C30.66304835 67.17073835 26.0197037 63.17019629 20 57 C18.30068417 55.51703225 16.57904909 54.06562566 14.84375 52.625 C11.60501679 49.77052327 8.63446766 46.64378284 5.60546875 43.5703125 C1.83491896 39.75712321 -1.92452118 35.98854374 -6 32.5 C-20.68111003 19.89045764 -20.68111003 19.89045764 -21.3125 12.1875 C-21.22298565 7.75247102 -20.03238261 5.33562087 -17 2 C-11.33014435 -2.35158222 -6.55509308 -2.63275513 0 0 Z M-10.875 8.125 C-12.22795298 9.98485803 -12.22795298 9.98485803 -11.875 12.4375 C-10.94935442 15.1483192 -9.94247895 16.90212274 -8 19 C-7.34 19 -6.68 19 -6 19 C-6 19.66 -6 20.32 -6 21 C-3.69 21.33 -1.38 21.66 1 22 C3.24393776 19.32486497 3.24393776 19.32486497 2.796875 17.04296875 C1.36584597 13.37420316 -1.12926554 10.64937662 -4 8 C-7.02745259 6.73269427 -8.05975479 6.43585287 -10.875 8.125 Z M48 59 C45.69 61.31 43.38 63.62 41 66 C42.08861328 67.08667969 42.08861328 67.08667969 43.19921875 68.1953125 C44.93630042 69.93481687 46.66895135 71.67877282 48.39453125 73.4296875 C52.70948791 77.79344012 57.06307172 82.01915041 61.72265625 86.01171875 C64.78220381 88.68291893 67.76612041 91.43231948 70.75 94.1875 C71.30534424 94.69909668 71.86068848 95.21069336 72.43286133 95.73779297 C74.7721275 97.90119841 77.05936291 100.06192165 79.265625 102.36328125 C80.84497468 104.2287783 80.84497468 104.2287783 83 104 C83 104.66 83 105.32 83 106 C84.64587975 107.74275776 84.64587975 107.74275776 86.75 109.5 C87.44609375 110.1084375 88.1421875 110.716875 88.859375 111.34375 C90.84460792 112.87976963 92.71872045 113.9723966 95 115 C95 115.66 95 116.32 95 117 C96.55705194 118.57840572 96.55705194 118.57840572 98.5 120.125 C99.1496875 120.66382813 99.799375 121.20265625 100.46875 121.7578125 C101.22671875 122.37269531 101.22671875 122.37269531 102 123 C101.236875 123.99 100.47375 124.98 99.6875 126 C95.5381312 131.84683785 93.07370275 137.72195019 94 145 C96.59800906 150.71561994 100.43856098 155.67449748 105 160 C105.66 160 106.32 160 107 160 C107 160.66 107 161.32 107 162 C108.27873959 163.33252309 108.27873959 163.33252309 110.0625 164.75 C115.08159968 169.00454149 119.85055935 173.5062864 124.63110352 178.02441406 C130.12065867 184.07211107 130.12065867 184.07211107 137 187 C137 187.66 137 188.32 137 189 C138.55855981 190.35712166 138.55855981 190.35712166 140.5 191.625 C141.47453125 192.29402344 141.47453125 192.29402344 142.46875 192.9765625 C142.9740625 193.31429687 143.479375 193.65203125 144 194 C145.7541123 192.92333797 147.50312587 191.83836661 149.25 190.75 C150.22453125 190.14671875 151.1990625 189.5434375 152.203125 188.921875 C157.21504474 185.54330841 157.21504474 185.54330841 159.7421875 180.265625 C160.03673052 174.02418642 160.03673052 174.02418642 157.109375 168.71875 C154.49401451 166.64620018 151.79776576 164.817583 149 163 C147.42123859 161.79179085 145.85853167 160.5623172 144.3125 159.3125 C143.50167969 158.66410156 142.69085938 158.01570313 141.85546875 157.34765625 C138.23174218 154.36836806 134.67306066 151.31876649 131.125 148.25 C130.48216064 147.69481689 129.83932129 147.13963379 129.17700195 146.56762695 C126.5846737 144.31344329 124.07413793 142.07638453 121.6796875 139.609375 C120.14702226 137.76938919 120.14702226 137.76938919 118 138 C118 137.34 118 136.68 118 136 C117.34 136 116.68 136 116 136 C116.48224852 129.6102071 116.48224852 129.6102071 118.75 126.9375 C121 126 121 126 123.3125 126.375 C126.32211905 128.19476966 128.3142093 130.28290868 130.7265625 132.81640625 C134.14167404 136.09655634 137.89734127 138.90199701 141.6472168 141.78613281 C146.3692082 145.44146065 150.76790232 149.31369574 155.109375 153.41796875 C156.8447711 155.21391388 156.8447711 155.21391388 159 155 C159.84840916 150.43889435 160.00684349 146.54815507 159 142 C151.75062536 132.62213885 139.64754792 126.78823952 129.55957031 120.94873047 C128 120 128 120 127 119 C126.7017268 116.16640458 126.64397406 114.56214622 128.1875 112.125 C130 111 130 111 132.18359375 111.1328125 C135.94351508 112.29051366 138.76830393 114.41829318 141.875 116.75 C142.46152344 117.18054688 143.04804688 117.61109375 143.65234375 118.0546875 C146.08668012 119.8416509 148.51418698 121.63754081 150.93457031 123.44335938 C154.13111176 126.08546171 154.13111176 126.08546171 158 127 C158.49742262 124.21154018 158.49742262 124.21154018 158 121 C156.02191938 118.99440357 154.34321473 117.57172497 152.0625 116 C151.17812256 115.35816772 151.17812256 115.35816772 150.27587891 114.70336914 C148.53156893 113.44696311 146.76973405 112.2202416 145 111 C144.08863281 110.35933594 143.17726563 109.71867187 142.23828125 109.05859375 C135.65746751 104.54448185 130.09175025 102.60905794 122 104 C118.8723901 105.94901628 116.53714539 108.35514561 114 111 C111 113 111 113 108.99707031 112.77978516 C105.64132654 111.46948618 103.30155036 108.84067197 100.75 106.375 C99.58273863 105.27138676 98.41477282 104.16851809 97.24609375 103.06640625 C96.68519043 102.53418457 96.12428711 102.00196289 95.54638672 101.45361328 C93.67397008 99.69352982 91.75595119 97.9936449 89.8125 96.3125 C84.27358146 91.51674872 78.85925957 86.58199803 73.421875 81.671875 C69.53584613 78.16729682 65.64176712 74.6775261 61.6875 71.25 C58.66056637 68.61814807 55.83656827 65.83656827 53 63 C51.35135455 61.64444707 49.68996005 60.30368347 48 59 Z M131 113 C130.34 113.66 129.68 114.32 129 115 C129.08319622 117.03794385 129.08319622 117.03794385 130 119 C132.41404898 120.71923045 134.75617853 122.21301285 137.3125 123.6875 C144.58743863 128.04034919 151.32918206 132.7694723 158 138 C159.21936455 135.14654914 159.21936455 135.14654914 158.57421875 132.6875 C156.1949057 128.62554621 152.68074554 126.57665045 148.8125 124 C147.31894939 122.97925596 145.82545916 121.95842355 144.33203125 120.9375 C143.60580566 120.44894531 142.87958008 119.96039063 142.13134766 119.45703125 C140.07913299 118.05409687 138.07620734 116.59834739 136.07421875 115.125 C133.34865984 112.81046268 133.34865984 112.81046268 131 113 Z M121 128 C119.35444301 129.22809091 119.35444301 129.22809091 118 131 C118.25455919 133.58271511 118.78576469 134.77080561 120.56640625 136.67578125 C121.22511719 137.21589844 121.88382813 137.75601563 122.5625 138.3125 C123.27792969 138.90804687 123.99335938 139.50359375 124.73046875 140.1171875 C125.47941406 140.73851562 126.22835937 141.35984375 127 142 C129.11723458 143.89922963 131.22851864 145.80473303 133.3359375 147.71484375 C134.91339058 149.20374533 134.91339058 149.20374533 137 149 C137.33 149.99 137.66 150.98 138 152 C139.97718076 153.85050361 139.97718076 153.85050361 142.4375 155.6875 C143.33210938 156.38230469 144.22671875 157.07710937 145.1484375 157.79296875 C146.08945313 158.52128906 147.03046875 159.24960938 148 160 C149.85610685 161.49759854 151.71037313 162.99748209 153.5625 164.5 C156.00137618 166.85179406 156.00137618 166.85179406 159 168 C159.89576521 164.40162695 160.02629069 161.5846517 159 158 C155.63109566 154.54061955 151.82731763 151.98331505 147.83544922 149.29394531 C144.83408409 147.17805875 142.08650366 144.77673477 139.3125 142.375 C136.07805764 139.14506439 136.07805764 139.14506439 132 138 C132 137.34 132 136.68 132 136 C130.32040162 134.22328303 130.32040162 134.22328303 128.1875 132.4375 C127.47980469 131.81746094 126.77210938 131.19742188 126.04296875 130.55859375 C123.98726532 128.81575246 123.98726532 128.81575246 121 128 Z " fill="#EC343A" transform="translate(37,62)"/>
<path d="M0 0 C2.17579398 4.04999275 2.07088158 7.0491876 1.625 11.5625 C0.99950088 19.49382881 0.74459564 27.42085028 0.625 35.375 C0.58713379 36.56295166 0.54926758 37.75090332 0.51025391 38.97485352 C0.42252223 48.05253865 2.24609766 54.73881356 8.3125 61.625 C12.69966244 63.86959474 16.68094291 63.46381142 21.5 62.5 C21.995 62.335 22.49 62.17 23 62 C23 61.34 23 60.68 23 60 C23.66 60 24.32 60 25 60 C25.20496094 59.38511719 25.40992188 58.77023438 25.62109375 58.13671875 C26.74739583 54.7578125 27.87369792 51.37890625 29 48 C29.09437908 46.1959349 29.13071554 44.38856215 29.1328125 42.58203125 C29.13458496 41.49946045 29.13635742 40.41688965 29.13818359 39.30151367 C29.13383301 38.15013916 29.12948242 36.99876465 29.125 35.8125 C29.1245166 34.64243408 29.1240332 33.47236816 29.12353516 32.2668457 C29.09243049 24.49014211 28.77638311 16.81282644 28.0234375 9.07421875 C27.99284937 5.0620758 28.89487815 2.34536573 31.4375 -0.75 C35.30671664 -3.84537331 40.3089672 -3.45707499 45 -3 C48.67903428 -1.56926445 51.50210517 -0.06930647 54 3 C54.33625793 4.99511719 54.33625793 4.99511719 54.28051758 7.296875 C54.25982964 8.59467896 54.25982964 8.59467896 54.23872375 9.91870117 C54.20764023 10.85302979 54.1765567 11.7873584 54.14453125 12.75 C54.12283371 13.71848877 54.10113617 14.68697754 54.07878113 15.68481445 C54.02946081 17.73944588 53.972639 19.79390874 53.90893555 21.84814453 C53.81373025 24.95979101 53.74371878 28.07120567 53.67773438 31.18359375 C53.62651176 33.1849351 53.57382221 35.18623954 53.51953125 37.1875 C53.48808769 38.56470215 53.48808769 38.56470215 53.45600891 39.96972656 C53.07247802 51.52544901 51.86818057 61.51496174 43.109375 69.78515625 C37.06986228 74.62389971 30.85860892 77.58939567 23 77 C27.02042043 83.49908671 34.13723608 85.95742595 40.75976562 89.1875 C47.45193655 92.63100027 52.23743384 96.36853264 56 103 C58.17320817 110.34378925 56.7298408 117.90326638 53.375 124.6875 C51.66920178 127.48577573 49.76613518 128.98971018 47.0625 130.8125 C41.29965937 134.80133185 38.33512796 141.20538841 37 148 C36.10969603 155.73292592 37.51867991 161.25255386 41.00390625 168.17578125 C42.20905829 171.59274175 41.97168046 173.5386905 41 177 C38.875 179.4375 38.875 179.4375 36 181 C32.26334037 181 30.01321325 180.75990994 27 178.5 C25.41907822 174.54769556 25.9727893 171.07505297 27 167 C27.64284462 165.66506057 28.33077117 164.35086541 29.0625 163.0625 C33.2861876 155.29091481 30.7512617 146.22467548 29 138 C27.49373047 138.14308594 27.49373047 138.14308594 25.95703125 138.2890625 C12.14441641 139.46955528 -0.01485214 138.84613283 -12 131 C-17.31817874 126.41753769 -20.54722728 120.92906107 -21.3515625 113.94921875 C-21.67210936 106.6356891 -20.9758938 101.53035053 -16 96 C-12.04144715 92.39073122 -8.40498735 91.70852226 -3.06640625 91.77734375 C0.0945694 92.11794037 2.35124663 93.29722997 5 95 C7 98 7 98 6.8125 101.375 C6 105 6 105 4.4375 107.3125 C2.25951998 111.3843757 2.60055015 115.46778059 3 120 C3.33 120.99 3.66 121.98 4 123 C6.42383077 124.16953416 6.42383077 124.16953416 9 125 C9.66 125.33 10.32 125.66 11 126 C19.79750998 127.02462928 19.79750998 127.02462928 27.6875 123.875 C31.23412982 119.46567644 32.23172965 116.02681919 32 110.4375 C31.47952922 106.96769479 31.11209769 106.12094751 28.625 103.4375 C27.43198113 102.60267566 26.2205865 101.79397374 25 101 C23.14049786 99.6741178 21.2867497 98.34014452 19.4375 97 C18.48875 96.31421875 17.54 95.6284375 16.5625 94.921875 C10.03075351 90.02306513 7.28104059 86.11693823 6 78 C4.69675781 77.63648438 4.69675781 77.63648438 3.3671875 77.265625 C-8.07908612 73.93673111 -8.07908612 73.93673111 -13 70 C-13.845625 69.46375 -14.69125 68.9275 -15.5625 68.375 C-25.42529028 58.76510178 -24.01134167 44.77642949 -24.2734375 32.0234375 C-24.30781393 29.37352572 -24.33218194 26.72380367 -24.35009766 24.07373047 C-24.36686561 22.25654481 -24.39441842 20.4394303 -24.43212891 18.62255859 C-24.48669136 15.9641811 -24.50870828 13.30729775 -24.5234375 10.6484375 C-24.54610687 9.83805023 -24.56877625 9.02766296 -24.59213257 8.19271851 C-24.5770786 4.2029919 -24.41541017 2.43084258 -21.59472656 -0.49462891 C-14.95012582 -4.34959768 -6.35867792 -4.49760145 0 0 Z " fill="#EC3239" transform="translate(468,171)"/>
<path d="M0 0 C5.78812866 5.36519651 8.50596631 12.20249918 9.13671875 20.03125 C9.10398767 27.26481896 8.68163098 34.30087355 7.87109375 41.484375 C6.28041409 55.70378984 7.80773522 67.90511419 10.46875 81.87109375 C10.83683027 84.26182873 11.12070246 86.32949109 10.87109375 88.734375 C8.3815532 92.1229163 6.84156299 93.41088525 2.87109375 94.734375 C-1.94332078 95.29376412 -5.25092171 95.21327566 -9.56640625 92.859375 C-13.24514871 89.80871052 -14.3867177 88.43490246 -15.12890625 83.734375 C-15.78890625 84.724375 -16.44890625 85.714375 -17.12890625 86.734375 C-17.78890625 86.734375 -18.44890625 86.734375 -19.12890625 86.734375 C-19.12890625 87.394375 -19.12890625 88.054375 -19.12890625 88.734375 C-29.2465202 94.80494337 -38.20877178 96.35242469 -49.87890625 93.609375 C-55.01057659 92.0527435 -59.36957351 89.60142501 -63.12890625 85.734375 C-63.12890625 85.074375 -63.12890625 84.414375 -63.12890625 83.734375 C-63.78890625 83.734375 -64.44890625 83.734375 -65.12890625 83.734375 C-65.77885922 82.31959365 -66.42369347 80.90246013 -67.06640625 79.484375 C-67.42605469 78.69546875 -67.78570312 77.9065625 -68.15625 77.09375 C-71.52191841 68.92963867 -71.09866874 59.38143505 -68.21875 51.11328125 C-64.18591062 42.3104168 -58.01021234 37.34317017 -49.12890625 33.734375 C-38.61646686 30.52482492 -27.0140867 30.62018511 -17.12890625 35.734375 C-17.0412307 32.35954087 -16.98828997 28.98500285 -16.94140625 25.609375 C-16.91626953 24.65804687 -16.89113281 23.70671875 -16.86523438 22.7265625 C-16.80864949 17.29441384 -17.00889298 13.40317183 -20.12890625 8.734375 C-23.06098854 6.29097309 -24.81712946 5.76777966 -28.62890625 5.359375 C-32.45782404 5.76961619 -34.03187459 6.51806172 -37.12890625 8.734375 C-39.02247901 11.09419719 -39.02247901 11.09419719 -40.62890625 13.734375 C-43.03773571 17.55214245 -44.97768737 19.83381696 -49.12890625 21.734375 C-54.32392805 22.25387718 -58.13796148 21.54330951 -62.19140625 18.234375 C-62.83078125 17.409375 -63.47015625 16.584375 -64.12890625 15.734375 C-64.45890625 15.404375 -64.78890625 15.074375 -65.12890625 14.734375 C-65.52135377 10.73141027 -65.3812706 8.26013406 -63.62890625 4.609375 C-49.78909984 -11.30640238 -16.29770609 -12.08123534 0 0 Z M-41.87890625 49.109375 C-45.92428573 54.51217417 -47.29030294 62.00207653 -47.00390625 68.625 C-46.16944991 73.60193601 -44.83947573 77.13976082 -41.12890625 80.734375 C-38.05695717 82.27034954 -35.52646332 81.9608788 -32.12890625 81.734375 C-28.77729379 80.35223378 -28.77729379 80.35223378 -26.12890625 78.734375 C-26.12890625 78.074375 -26.12890625 77.414375 -26.12890625 76.734375 C-25.23945313 76.3940625 -25.23945313 76.3940625 -24.33203125 76.046875 C-19.899831 73.40641528 -17.99225132 68.3807161 -16.12890625 63.734375 C-15.14785258 58.60214648 -15.51221126 54.99060553 -17.81640625 50.296875 C-21.14841052 46.60465405 -23.69307478 45.1066276 -28.50390625 43.859375 C-34.20943254 43.66263271 -37.60662332 45.41967611 -41.87890625 49.109375 Z " fill="#EC3339" transform="translate(337.12890625,175.265625)"/>
<path d="M0 0 C5.03868127 4.14431535 8.52274145 9.56228338 9.57421875 16.015625 C9.73417196 20.49431497 9.53965437 23.85845373 7.625 27.9375 C3.46014501 31.0865367 -0.91788241 33.08591026 -6.23046875 32.71484375 C-10.16282417 31.86247527 -11.6666561 31.28126584 -13.9375 27.875 C-14.27083333 21.54166667 -14.27083333 21.54166667 -12.9375 18.875 C-12.51173129 15.04308162 -12.63428685 13.34550317 -14.75 10.0625 C-17.73018289 7.08231711 -20.19065974 6.7091314 -24.25 6.625 C-29.79467269 6.70600983 -33.24776405 8.23093259 -37.25 12.125 C-39.37368669 15.58582275 -39.9375 17.80598832 -39.9375 21.875 C-37.36212779 27.45184006 -35.1528592 29.91660707 -29.625 32.875 C-28.71282715 33.3707251 -28.71282715 33.3707251 -27.78222656 33.87646484 C-22.71523397 36.58602424 -17.50352322 38.98027994 -12.28198242 41.37329102 C-2.74892495 45.7663301 6.46500484 50.41442279 11.2265625 60.2890625 C13.07763635 66.01528161 13.03114033 72.50310727 10.625 78.0625 C5.7750316 86.34998986 -1.91943898 91.21025413 -10.9375 93.875 C-11.69417969 94.09929687 -12.45085937 94.32359375 -13.23046875 94.5546875 C-27.23025134 97.97841993 -43.48093955 96.89393649 -55.96484375 89.39453125 C-60.55661205 85.85750577 -64.55446972 80.54542414 -65.9375 74.875 C-66.50500109 70.12217839 -66.41771302 66.83542603 -64.25 62.5 C-61.33908786 59.19572135 -59.27389371 57.18141229 -54.79296875 56.59375 C-51.2067554 56.45101514 -48.31695736 56.75883958 -44.875 57.8125 C-42.59217886 60.24259993 -42.62236881 60.95458453 -42.5625 64.1875 C-42.75662986 67.80537466 -43.34221309 71.30327853 -43.9375 74.875 C-43.6075 75.865 -43.2775 76.855 -42.9375 77.875 C-40.56124655 79.05891223 -40.56124655 79.05891223 -37.9375 79.875 C-36.4525 80.37 -36.4525 80.37 -34.9375 80.875 C-26.4204186 81.7111791 -18.87431949 81.3304453 -11.9375 75.875 C-9.9660879 72.15964642 -9.9375 70.09456529 -9.9375 65.875 C-10.5975 65.875 -11.2575 65.875 -11.9375 65.875 C-12.80652954 64.9763623 -12.80652954 64.9763623 -13.69311523 64.05957031 C-16.25534839 61.5656225 -18.59813329 60.39877073 -21.84765625 58.921875 C-23.00330078 58.38433594 -24.15894531 57.84679687 -25.34960938 57.29296875 C-27.75352354 56.19140304 -30.16085267 55.09762851 -32.56835938 54.00390625 C-43.69470357 48.81941161 -56.15944364 42.67821497 -60.75 30.5625 C-63.02342155 22.80688478 -62.7289512 15.11088822 -58.9375 7.875 C-53.40120762 0.17414218 -45.58922953 -3.4098433 -36.57421875 -5.734375 C-24.13474486 -7.57726002 -10.93409743 -6.69385921 0 0 Z " fill="#EC3339" transform="translate(423.9375,174.125)"/>
<path d="M0 0 C1.54300781 -0.03867187 1.54300781 -0.03867187 3.1171875 -0.078125 C6.85641726 0.32979097 8.33978602 0.66506061 11.125 3.25 C12.67109504 6.79231901 13.63346893 10.45788774 14.625 14.1875 C15.21805051 16.27865542 15.81567088 18.3685205 16.41796875 20.45703125 C16.84988525 21.96064209 16.84988525 21.96064209 17.29052734 23.49462891 C18.8351839 28.59497819 20.92957044 33.39867626 23.125 38.25 C23.79924996 39.9136133 24.46808214 41.57946681 25.125 43.25 C29.57674266 35.23292363 32.46845065 26.84244423 35.44042969 18.20898438 C40.99452582 2.31523709 40.99452582 2.31523709 45.125 0.25 C46.91252492 0.10245826 48.7066284 0.0288478 50.5 0 C51.45648438 -0.02578125 52.41296875 -0.0515625 53.3984375 -0.078125 C56.6485706 0.3130085 57.80627728 0.96169474 60.125 3.25 C60.62329102 5.84350586 60.62329102 5.84350586 60.62890625 8.96484375 C60.64566406 10.11670166 60.66242188 11.26855957 60.6796875 12.45532227 C60.68355469 14.30275024 60.68355469 14.30275024 60.6875 16.1875 C60.84115775 25.00869754 61.18138637 33.6015075 62.625 42.3125 C62.75664551 43.11606934 62.88829102 43.91963867 63.02392578 44.74755859 C63.2733287 46.24239961 63.52571968 47.73674657 63.78173828 49.23046875 C64.26701408 52.08551956 64.69960468 54.93926694 65.0625 57.8125 C65.23072266 59.02099609 65.23072266 59.02099609 65.40234375 60.25390625 C65.125 62.25 65.125 62.25 63.375 64.0078125 C60.07319169 65.83068584 56.77513509 65.77338995 53.125 65.25 C51.44160306 64.62678496 49.77014318 63.96814076 48.125 63.25 C48.10518066 62.62657715 48.08536133 62.0031543 48.06494141 61.36083984 C47.6707001 49.54013494 47.20724527 37.9146167 45.125 26.25 C42.37098073 32.79384224 39.65483902 39.35280059 37 45.9375 C36.74283203 46.57341064 36.48566406 47.20932129 36.22070312 47.86450195 C34.81863414 51.37286094 33.5825958 54.88154123 32.5 58.5 C31.125 62.25 31.125 62.25 29.3125 64.3125 C26.27448579 65.61450609 24.40113904 65.78487984 21.125 65.25 C17.08648458 61.8457411 15.2385822 58.85026557 13.5546875 53.8828125 C13.13316406 52.66722656 12.71164062 51.45164062 12.27734375 50.19921875 C11.85097168 48.92467666 11.42519467 47.64993536 11 46.375 C10.14782434 43.87600926 9.28836528 41.37958328 8.4296875 38.8828125 C8.03362305 37.72426758 7.63755859 36.56572266 7.22949219 35.37207031 C6.00659969 31.91531761 4.64755759 28.58370452 3.125 25.25 C1.57763294 35.14209655 0.89305278 44.58497931 1.375 54.59667969 C1.54863321 60.64731484 1.54863321 60.64731484 -0.66796875 63.80078125 C-3.88852881 65.91552069 -6.10017059 65.71357554 -9.875 65.25 C-12.8125 64.1875 -12.8125 64.1875 -14.875 62.25 C-15.24197841 56.9655109 -14.40971691 51.99430826 -13.5 46.8125 C-11.69187365 35.85913955 -11.1004871 24.86286724 -10.52197266 13.79125977 C-10.48513367 13.10895798 -10.44829468 12.42665619 -10.41033936 11.72367859 C-10.31035177 9.84842034 -10.21722547 7.97279991 -10.12451172 6.09716797 C-9.875 3.25 -9.875 3.25 -8.875 1.25 C-5.71490467 0.19663489 -3.3196864 0.04967112 0 0 Z " fill="#373435" transform="translate(284.875,278.75)"/>
<path d="M0 0 C5.37657328 3.68069152 8.32826581 10.78775508 11.38671875 16.328125 C12.76897278 18.61737865 14.01123955 20.2455648 16 22 C16.51949219 21.154375 17.03898437 20.30875 17.57421875 19.4375 C19.01202149 17.09753299 20.45262169 14.75931317 21.89453125 12.421875 C23.13078976 10.4168925 24.35741314 8.40756333 25.57421875 6.390625 C28.78440367 1.10779817 28.78440367 1.10779817 31 0 C35.23720693 -0.42535668 38.83080311 -0.68440794 42.5625 1.5 C43.036875 1.995 43.51125 2.49 44 3 C42.54329575 7.33809726 40.20383509 10.59560534 37.375 14.125 C36.47793396 15.26595895 35.58212158 16.4079046 34.6875 17.55078125 C34.01460938 18.40857178 34.01460938 18.40857178 33.328125 19.28369141 C30.11048769 23.44177785 27.06449583 27.72853794 24 32 C26.55899107 36.86581879 30.10454788 40.50635293 33.875 44.4375 C38.07569434 48.84601817 42.15758434 53.27368264 46 58 C45.13166723 60.99969504 44.57799424 62.6146705 41.9375 64.375 C37.57800354 65.30255244 34.20877284 65.72737908 30 64 C26.46198713 60.71047633 23.76127567 56.948975 21 53 C20.30003906 52.02546875 19.60007812 51.0509375 18.87890625 50.046875 C17.22389708 47.71587617 15.59872033 45.36980731 14 43 C11.33596237 46.19684516 8.92563976 49.51662301 6.5625 52.9375 C-0.6687643 63.33438215 -0.6687643 63.33438215 -4 65 C-6.05859375 64.984375 -6.05859375 64.984375 -8.4375 64.75 C-9.61119141 64.64945313 -9.61119141 64.64945313 -10.80859375 64.546875 C-13.35962232 63.91025468 -14.33607581 62.99028875 -16 61 C-14.60159108 56.90045384 -12.66787138 54.10653123 -9.875 50.8125 C-6.01408125 46.22181148 -2.28786464 41.55373124 1.37109375 36.80078125 C1.90863281 36.20652344 2.44617188 35.61226563 3 35 C3.66 35 4.32 35 5 35 C4.48496678 30.56279075 2.96384455 28.34495962 0.0625 25 C-0.73929687 24.05511719 -1.54109375 23.11023438 -2.3671875 22.13671875 C-2.79354492 21.63446777 -3.21990234 21.1322168 -3.65917969 20.61474609 C-6.04244857 17.74458215 -8.29917659 14.77753113 -10.5625 11.8125 C-11.00392334 11.23564453 -11.44534668 10.65878906 -11.90014648 10.06445312 C-12.93493213 8.71078162 -13.96769963 7.35556771 -15 6 C-14.02622694 3.56556735 -13.36854609 2.24180978 -11.1484375 0.78515625 C-7.36090135 -0.59901605 -3.95118156 -0.86345751 0 0 Z " fill="#383435" transform="translate(397,279)"/>
<path d="M0 0 C2.86340415 2.03857639 5.18428806 4.42252547 7.5625 7 C8.18962891 7.64195313 8.81675781 8.28390625 9.46289062 8.9453125 C14 13.67538509 14 13.67538509 14 16 C14.66 16 15.32 16 16 16 C16 16.66 16 17.32 16 18 C16.66 18 17.32 18 18 18 C18 18.66 18 19.32 18 20 C18.66 20 19.32 20 20 20 C21.34423828 21.36767578 21.34423828 21.36767578 22.9453125 23.3203125 C28.0573798 29.33341811 33.72084141 34.77911618 39.33691406 40.31640625 C40.74482315 41.70632591 42.14980398 43.09920977 43.5546875 44.4921875 C44.38468262 45.31058105 45.21467773 46.12897461 46.06982422 46.97216797 C49.48057473 50.55548365 49.08962538 53.16022928 49 58 C48.34 58 47.68 58 47 58 C46.938125 58.556875 46.87625 59.11375 46.8125 59.6875 C45.57201141 63.21812136 43.9916738 64.75624465 41 67 C37.11538261 67.91659511 33.65357637 67.80702432 30.0390625 66.04296875 C26.28186242 63.45886826 23.17800363 60.25745372 20 57 C18.30068417 55.51703225 16.57904909 54.06562566 14.84375 52.625 C11.60501679 49.77052327 8.63446766 46.64378284 5.60546875 43.5703125 C1.83491896 39.75712321 -1.92452118 35.98854374 -6 32.5 C-20.68111003 19.89045764 -20.68111003 19.89045764 -21.3125 12.1875 C-21.22298565 7.75247102 -20.03238261 5.33562087 -17 2 C-11.33014435 -2.35158222 -6.55509308 -2.63275513 0 0 Z M-10.875 8.125 C-12.22795298 9.98485803 -12.22795298 9.98485803 -11.875 12.4375 C-10.94935442 15.1483192 -9.94247895 16.90212274 -8 19 C-7.34 19 -6.68 19 -6 19 C-6 19.66 -6 20.32 -6 21 C-3.69 21.33 -1.38 21.66 1 22 C3.24393776 19.32486497 3.24393776 19.32486497 2.796875 17.04296875 C1.36584597 13.37420316 -1.12926554 10.64937662 -4 8 C-7.02745259 6.73269427 -8.05975479 6.43585287 -10.875 8.125 Z " fill="#332F30" transform="translate(37,62)"/>
<path d="M0 0 C0.845625 0.00386719 1.69125 0.00773437 2.5625 0.01171875 C5.13087137 0.32864919 6.73616554 1.11028664 9 2.3125 C9.11581206 10.08356828 9.2046728 17.85443475 9.25906086 25.62614918 C9.28516394 29.23488133 9.32057222 32.84302348 9.37719727 36.45141602 C9.43149587 39.93331896 9.46141518 43.41465424 9.47438622 46.89694786 C9.48813178 48.87304298 9.52716925 50.84890941 9.56648254 52.82466125 C9.5668602 54.02567978 9.56723785 55.2266983 9.56762695 56.46411133 C9.57873001 57.52334305 9.58983307 58.58257477 9.60127258 59.67390442 C9 62.3125 9 62.3125 6.59342957 64.15312195 C4.14738365 65.24661297 2.64465584 65.7194918 0 65.6875 C-0.9590625 65.69910156 -0.9590625 65.69910156 -1.9375 65.7109375 C-4.70415045 65.17647094 -6.66327815 63.84597372 -9 62.3125 C-8.9278125 61.11238281 -8.855625 59.91226563 -8.78125 58.67578125 C-8.26840895 49.68007464 -7.89181085 40.69895755 -7.875 31.6875 C-7.87338867 30.82439209 -7.87177734 29.96128418 -7.87011719 29.07202148 C-7.89130066 24.72818806 -8.03286486 20.42526676 -8.3671875 16.09375 C-8.42922363 15.26697754 -8.49125977 14.44020508 -8.55517578 13.58837891 C-8.68192575 12.02639995 -8.82774874 10.46581238 -8.99560547 8.90771484 C-9.171875 6.8046875 -9.171875 6.8046875 -9 3.3125 C-6.37243642 0.21222054 -3.94397046 -0.07815795 0 0 Z " fill="#3A3637" transform="translate(366,278.6875)"/>
<path d="M0 0 C7.12955729 -0.58902995 7.12955729 -0.58902995 10.984375 2.01953125 C11.89703125 2.94121094 12.8096875 3.86289063 13.75 4.8125 C14.78334616 5.82734044 15.81721554 6.84164836 16.8515625 7.85546875 C17.37137695 8.37802246 17.89119141 8.90057617 18.42675781 9.43896484 C20.9207151 11.91357113 23.52340603 14.26472181 26.125 16.625 C27.12139485 17.53743172 28.11749239 18.45018822 29.11328125 19.36328125 C37.50028616 27.03613404 37.50028616 27.03613404 46.125 34.4375 C47.07375 35.283125 48.0225 36.12875 49 37 C49 37.66 49 38.32 49 39 C49.57234375 39.2578125 50.1446875 39.515625 50.734375 39.78125 C53.21128995 41.11365942 55.1341166 42.65056118 57.25 44.5 C58.30960938 45.41265625 58.30960938 45.41265625 59.390625 46.34375 C61 48 61 48 61 50 C61.5775 50.226875 62.155 50.45375 62.75 50.6875 C65.5663661 52.33038023 67.08077114 54.39533227 69 57 C68.236875 57.825 67.47375 58.65 66.6875 59.5 C62.90252541 64.06992671 61.28131807 68.70926713 60.5625 74.5625 C61.45780263 81.59702067 66.12822189 87.07254443 71 92 C71.66 92.33 72.32 92.66 73 93 C73 93.66 73 94.32 73 95 C73.56203125 95.23332031 74.1240625 95.46664062 74.703125 95.70703125 C77.56734142 97.31937076 79.47252021 99.3193562 81.75 101.6875 C87.94266067 107.99820259 94.29168165 113.65666116 101.53125 118.73828125 C102.0159375 119.15464844 102.500625 119.57101563 103 120 C103 120.66 103 121.32 103 122 C103.5775 122.28875 104.155 122.5775 104.75 122.875 C106.83333333 123.91666667 108.91666667 124.95833333 111 126 C111.75925781 125.41089844 112.51851563 124.82179688 113.30078125 124.21484375 C114.79158203 123.08755859 114.79158203 123.08755859 116.3125 121.9375 C117.79169922 120.80634766 117.79169922 120.80634766 119.30078125 119.65234375 C120.19152344 119.10707031 121.08226562 118.56179687 122 118 C123.485 118.495 123.485 118.495 125 119 C122.16553695 122.011617 119.21450211 124.7693051 116 127.375 C115.0409375 128.16003906 115.0409375 128.16003906 114.0625 128.9609375 C112 130 112 130 109.57421875 129.94921875 C106.22942463 128.71585764 104.37154304 126.91338359 101.8125 124.4375 C97.32996223 120.19248801 92.71669355 116.32464456 87.80078125 112.59375 C87.20652344 112.0678125 86.61226563 111.541875 86 111 C86 110.34 86 109.68 86 109 C85.42507812 108.75378906 84.85015625 108.50757813 84.2578125 108.25390625 C81.64360173 106.80206947 79.93663792 105.09712451 77.875 102.9375 C75.22095 100.08428067 75.22095 100.08428067 72 98 C72 97.34 72 96.68 72 96 C71.34 96 70.68 96 70 96 C67.48177209 93.50037969 65.2740243 90.72170693 63 88 C62.236875 87.13375 61.47375 86.2675 60.6875 85.375 C57.08395708 80.303347 56.58258497 75.78391364 57.30859375 69.74609375 C58.57882516 64.70105036 61.27215765 60.38790544 64 56 C59.88432918 51.76857594 55.65531724 47.75126748 51.18359375 43.8984375 C47.83960727 40.99114335 44.57267161 37.99931235 41.296875 35.015625 C39.06085025 32.98573474 39.06085025 32.98573474 36.703125 31.359375 C36.14109375 30.91078125 35.5790625 30.4621875 35 30 C35 29.34 35 28.68 35 28 C34.42765625 27.7421875 33.8553125 27.484375 33.265625 27.21875 C30.78871005 25.88634058 28.8658834 24.34943882 26.75 22.5 C26.04359375 21.8915625 25.3371875 21.283125 24.609375 20.65625 C23 19 23 19 23 17 C22.44570312 16.77441406 21.89140625 16.54882812 21.3203125 16.31640625 C18.31493845 14.61133714 16.27012997 12.42200049 13.875 9.9375 C10.75894235 6.53546517 10.75894235 6.53546517 7 4 C7 3.34 7 2.68 7 2 C4.69 1.67 2.38 1.34 0 1 C0 0.67 0 0.34 0 0 Z " fill="#7C7A7B" transform="translate(71,129)"/>
<path d="M0 0 C0.33 0 0.66 0 1 0 C1 1.98 1 3.96 1 6 C3.51083114 4.74458443 3.87125446 3.49936512 5 1 C5.01417969 1.98097656 5.02835938 2.96195312 5.04296875 3.97265625 C5.30938294 12.86311989 6.68201224 20.27971243 9.84375 28.59765625 C11.04317518 32.12704588 11.73853778 35.28191856 12 39 C9.06329114 44.46835443 9.06329114 44.46835443 6 46 C1.64807662 46.49267057 -0.29982008 46.51752429 -3.875 43.875 C-6.29481153 40.60113734 -6.76869247 39.0334251 -7 35 C-6.13546233 32.49513091 -5.21565982 30.21061931 -4.125 27.8125 C-0.28780385 18.67818639 -0.02130615 9.80082863 0 0 Z " fill="#ED4046" transform="translate(239,291)"/>
<path d="M0 0 C0.25523438 0.58136719 0.51046875 1.16273437 0.7734375 1.76171875 C4.08786532 7.81002175 10.334084 12.35501907 15.515625 16.80078125 C19.70096248 20.50572622 23.74915117 24.35992653 27.80883789 28.20166016 C28.7484436 29.0860376 28.7484436 29.0860376 29.70703125 29.98828125 C30.2688208 30.51977783 30.83061035 31.05127441 31.40942383 31.59887695 C33.15697566 33.2012489 33.15697566 33.2012489 36 35 C36 35.66 36 36.32 36 37 C36.57234375 37.2578125 37.1446875 37.515625 37.734375 37.78125 C40.21128995 39.11365942 42.1341166 40.65056118 44.25 42.5 C45.30960938 43.41265625 45.30960938 43.41265625 46.390625 44.34375 C48 46 48 46 48 48 C48.57234375 48.25523437 49.1446875 48.51046875 49.734375 48.7734375 C52.24173733 50.13087159 54.1330456 51.71974104 56.25 53.625 C56.95640625 54.25664062 57.6628125 54.88828125 58.390625 55.5390625 C58.92171875 56.02117187 59.4528125 56.50328125 60 57 C62.95803481 55.6512925 65.20796367 54.10431451 67.625 51.9375 C72.13233197 47.9123935 75.12518501 47.63698498 81.140625 47.73828125 C89.49420753 48.50288512 95.80650272 54.73123168 102.14453125 59.7578125 C104.9691599 62.03547458 104.9691599 62.03547458 108 64 C108.66 61.69 109.32 59.38 110 57 C111.60080151 61.00200378 110.29279692 64.04556236 109 68 C104.83820825 65.25773412 100.69343527 62.49547339 96.61328125 59.6328125 C96.03602295 59.22861084 95.45876465 58.82440918 94.86401367 58.40795898 C93.71745469 57.60329124 92.57302808 56.79557528 91.4309082 55.98461914 C85.54250097 51.8563967 80.10905843 50.77797904 73 52 C69.8723901 53.94901628 67.53714539 56.35514561 65 59 C62 61 62 61 59.99707031 60.77978516 C56.64132654 59.46948618 54.30155036 56.84067197 51.75 54.375 C50.58273863 53.27138676 49.41477282 52.16851809 48.24609375 51.06640625 C47.68519043 50.53418457 47.12428711 50.00196289 46.54638672 49.45361328 C44.67397008 47.69352982 42.75595119 45.9936449 40.8125 44.3125 C36.14869776 40.27444901 31.57868709 36.13401945 27 32 C25.31288192 30.47874299 23.62538554 28.95790543 21.9375 27.4375 C21.12410156 26.70273438 20.31070313 25.96796875 19.47265625 25.2109375 C17.78486332 23.70178932 16.08364774 22.20755273 14.37109375 20.7265625 C13.54738281 20.01242188 12.72367188 19.29828125 11.875 18.5625 C11.12992188 17.92441406 10.38484375 17.28632813 9.6171875 16.62890625 C8 15 8 15 8 13 C7.443125 12.7525 6.88625 12.505 6.3125 12.25 C2.95956419 10.43760226 -0.26557246 8.46885508 -2 5 C-1.34 5 -0.68 5 0 5 C0 3.35 0 1.7 0 0 Z " fill="#797777" transform="translate(86,115)"/>
<path d="M0 0 C2.57613976 1.3739412 3.79147926 2.37511831 5.75 4.4375 C9.11408504 7.9705238 12.76954591 10.90788041 16.625 13.875 C21.95268598 17.97905511 26.99559049 22.23658419 31.921875 26.8203125 C33.71410628 28.5590222 33.71410628 28.5590222 35.8125 29.5 C35.8125 25.21 35.8125 20.92 35.8125 16.5 C36.1425 16.5 36.4725 16.5 36.8125 16.5 C36.8125 25.74 36.8125 34.98 36.8125 44.5 C35.8225 44.995 35.8225 44.995 34.8125 45.5 C31.80541743 43.17568497 28.80723672 40.84019846 25.8125 38.5 C25.05453125 37.90960938 24.2965625 37.31921875 23.515625 36.7109375 C16.32416869 31.03982263 9.43818319 25.0298119 2.55273438 18.99462891 C0.85101959 17.53308319 -0.88949632 16.13209021 -2.640625 14.73046875 C-3.48109375 13.99441406 -4.3215625 13.25835937 -5.1875 12.5 C-5.1875 11.84 -5.1875 11.18 -5.1875 10.5 C-5.8475 10.5 -6.5075 10.5 -7.1875 10.5 C-7.9375 8.3125 -7.9375 8.3125 -8.1875 5.5 C-3.96515237 -0.90632054 -3.96515237 -0.90632054 0 0 Z M-2.1875 2.5 C-3.83305699 3.72809091 -3.83305699 3.72809091 -5.1875 5.5 C-4.93294081 8.08271511 -4.40173531 9.27080561 -2.62109375 11.17578125 C-1.96238281 11.71589844 -1.30367187 12.25601563 -0.625 12.8125 C0.09042969 13.40804687 0.80585938 14.00359375 1.54296875 14.6171875 C2.29191406 15.23851562 3.04085937 15.85984375 3.8125 16.5 C5.92973458 18.39922963 8.04101864 20.30473303 10.1484375 22.21484375 C11.72589058 23.70374533 11.72589058 23.70374533 13.8125 23.5 C14.1425 24.49 14.4725 25.48 14.8125 26.5 C16.78968076 28.35050361 16.78968076 28.35050361 19.25 30.1875 C20.14460938 30.88230469 21.03921875 31.57710937 21.9609375 32.29296875 C22.90195313 33.02128906 23.84296875 33.74960938 24.8125 34.5 C26.66860685 35.99759854 28.52287313 37.49748209 30.375 39 C32.81387618 41.35179406 32.81387618 41.35179406 35.8125 42.5 C36.70826521 38.90162695 36.83879069 36.0846517 35.8125 32.5 C32.44359566 29.04061955 28.63981763 26.48331505 24.64794922 23.79394531 C21.64658409 21.67805875 18.89900366 19.27673477 16.125 16.875 C12.89055764 13.64506439 12.89055764 13.64506439 8.8125 12.5 C8.8125 11.84 8.8125 11.18 8.8125 10.5 C7.13290162 8.72328303 7.13290162 8.72328303 5 6.9375 C4.29230469 6.31746094 3.58460938 5.69742188 2.85546875 5.05859375 C0.79976532 3.31575246 0.79976532 3.31575246 -2.1875 2.5 Z " fill="#7A7879" transform="translate(160.1875,187.5)"/>
<path d="M0 0 C4.08896191 1.16323916 5.22877023 2.8307085 7.734375 6.21484375 C10.61133902 10.05592406 13.34023388 13.00958158 17.171875 15.90234375 C18.83854167 17.56901042 20.50520833 19.23567708 22.171875 20.90234375 C27.94296328 26.28182246 33.82034153 31.28712712 40.23828125 35.8828125 C42.73331129 38.48873276 42.97474732 40.34923756 43.171875 43.90234375 C42.676875 44.89234375 42.676875 44.89234375 42.171875 45.90234375 C41.511875 45.90234375 40.851875 45.90234375 40.171875 45.90234375 C40.254375 45.13921875 40.336875 44.37609375 40.421875 43.58984375 C40.47529571 40.75818031 40.47529571 40.75818031 38.171875 39.21484375 C37.511875 38.78171875 36.851875 38.34859375 36.171875 37.90234375 C36.171875 37.24234375 36.171875 36.58234375 36.171875 35.90234375 C35.61757812 35.65613281 35.06328125 35.40992188 34.4921875 35.15625 C25.83279724 30.47668051 18.34816572 22.56986759 11.171875 15.90234375 C10.5840625 15.36351562 9.99625 14.8246875 9.390625 14.26953125 C8.171875 12.90234375 8.171875 12.90234375 8.171875 10.90234375 C7.511875 10.90234375 6.851875 10.90234375 6.171875 10.90234375 C4.6640625 9.37109375 4.6640625 9.37109375 3.046875 7.40234375 C2.50804687 6.75265625 1.96921875 6.10296875 1.4140625 5.43359375 C0.79917969 4.675625 0.79917969 4.675625 0.171875 3.90234375 C-0.818125 4.23234375 -1.808125 4.56234375 -2.828125 4.90234375 C-1.7288816 7.46724501 -0.69969308 9.03077567 1.296875 11.02734375 C3.171875 12.90234375 3.171875 12.90234375 3.171875 14.90234375 C3.76645508 15.17022705 4.36103516 15.43811035 4.97363281 15.71411133 C7.19427257 16.91445048 8.5962357 18.10937373 10.34375 19.9140625 C10.92213623 20.50405029 11.50052246 21.09403809 12.09643555 21.7019043 C12.69883057 22.32492432 13.30122559 22.94794434 13.921875 23.58984375 C18.3483174 28.09896973 22.77904043 32.50126991 27.62109375 36.5703125 C29.23200849 37.95399493 30.75716141 39.3166678 32.171875 40.90234375 C32.171875 41.56234375 32.171875 42.22234375 32.171875 42.90234375 C19.5909529 37.14205823 9.68412663 24.64137618 0.18847656 14.94091797 C-1.47892864 13.25534492 -3.1779098 11.61873213 -4.8984375 9.98828125 C-6.828125 7.90234375 -6.828125 7.90234375 -6.828125 5.27734375 C-5.20562281 1.42390106 -4.3990383 -0.15190049 0 0 Z " fill="#817F7F" transform="translate(144.828125,201.09765625)"/>
<path d="M0 0 C3.67229326 1.17761303 6.47413079 3.23405284 9.52734375 5.515625 C10.14061523 5.96494385 10.75388672 6.4142627 11.38574219 6.87719727 C13.1904952 8.20518285 14.98504867 9.54589219 16.77734375 10.890625 C17.71578125 11.58800781 18.65421875 12.28539062 19.62109375 13.00390625 C25.48139189 17.44669721 25.48139189 17.44669721 27.77734375 20.890625 C28.04296875 22.828125 28.04296875 22.828125 28.02734375 24.890625 C28.03507812 25.9115625 28.03507812 25.9115625 28.04296875 26.953125 C27.77734375 28.890625 27.77734375 28.890625 25.77734375 31.890625 C24.92914063 31.20097656 24.0809375 30.51132813 23.20703125 29.80078125 C15.97427802 23.98462421 8.62112431 18.66486183 0.73828125 13.765625 C-4.15259665 10.66849915 -4.15259665 10.66849915 -6.22265625 8.890625 C-6.72265625 6.453125 -6.72265625 6.453125 -6.22265625 3.890625 C-3.34143362 -0.16442907 -3.34143362 -0.16442907 0 0 Z M-1.22265625 2.890625 C-1.88265625 3.550625 -2.54265625 4.210625 -3.22265625 4.890625 C-3.13946003 6.92856885 -3.13946003 6.92856885 -2.22265625 8.890625 C0.19139273 10.60985545 2.53352228 12.10363785 5.08984375 13.578125 C12.36478238 17.93097419 19.10652581 22.6600973 25.77734375 27.890625 C26.9967083 25.03717414 26.9967083 25.03717414 26.3515625 22.578125 C23.97224945 18.51617121 20.45808929 16.46727545 16.58984375 13.890625 C15.09629314 12.86988096 13.60280291 11.84904855 12.109375 10.828125 C11.38314941 10.33957031 10.65692383 9.85101563 9.90869141 9.34765625 C7.85647674 7.94472187 5.85355109 6.48897239 3.8515625 5.015625 C1.12600359 2.70108768 1.12600359 2.70108768 -1.22265625 2.890625 Z " fill="#8C8A8A" transform="translate(169.22265625,172.109375)"/>
<path d="M0 0 C5.92859434 2.6982705 11.02344891 7.19057765 16.09765625 11.21484375 C18.9222849 13.49250583 18.9222849 13.49250583 21.953125 15.45703125 C22.613125 13.14703125 23.273125 10.83703125 23.953125 8.45703125 C25.55392651 12.45903503 24.24592192 15.50259361 22.953125 19.45703125 C18.79133325 16.71476537 14.64656027 13.95250464 10.56640625 11.08984375 C9.98914795 10.68564209 9.41188965 10.28144043 8.81713867 9.86499023 C7.67057969 9.06032249 6.52615308 8.25260653 5.3840332 7.44165039 C-0.5024893 3.31474929 -5.93926736 2.23191694 -13.046875 3.45703125 C-15.4698764 5.01263887 -17.30681051 6.71483593 -19.3203125 8.765625 C-21.35833819 10.76215243 -23.3094162 11.68712096 -26.046875 12.45703125 C-26.046875 11.79703125 -26.046875 11.13703125 -26.046875 10.45703125 C-25.386875 10.45703125 -24.726875 10.45703125 -24.046875 10.45703125 C-23.7890625 9.86277344 -23.53125 9.26851562 -23.265625 8.65625 C-21.94850523 6.27952425 -20.63343566 4.98917552 -18.546875 3.26953125 C-17.9384375 2.76035156 -17.33 2.25117188 -16.703125 1.7265625 C-12.05348101 -1.83743348 -5.49444468 -1.45749582 0 0 Z " fill="#797677" transform="translate(172.046875,163.54296875)"/>
<path d="M0 0 C5.99834386 4.31880758 11.59180621 9.0114547 17.16259766 13.86035156 C17.74444824 14.3653418 18.32629883 14.87033203 18.92578125 15.390625 C19.44567627 15.84469727 19.96557129 16.29876953 20.5012207 16.76660156 C22.19483467 18.20239962 22.19483467 18.20239962 25 20 C25 15.71 25 11.42 25 7 C25.33 7 25.66 7 26 7 C26 15.91 26 24.82 26 34 C25.34 33.67 24.68 33.34 24 33 C24.13921875 32.38253906 24.2784375 31.76507813 24.421875 31.12890625 C24.8096199 28.09618725 24.7919464 25.96771494 24 23 C20.98406837 19.84354109 17.49449275 17.60802026 13.84082031 15.24316406 C10.50478658 12.99023518 7.39309004 10.44898169 4.25 7.9375 C3.04729889 6.98774422 1.84421057 6.03847844 0.640625 5.08984375 C-0.23078125 4.40019531 -1.1021875 3.71054688 -2 3 C-1.34 2.67 -0.68 2.34 0 2 C0 1.34 0 0.68 0 0 Z " fill="#888687" transform="translate(171,197)"/>
<path d="M0 0 C4.67199091 1.53093488 8.02170005 4.10757395 11.8125 7.125 C12.40998047 7.59292969 13.00746094 8.06085938 13.62304688 8.54296875 C15.08616792 9.69005565 16.54366297 10.84431234 18 12 C17.67 9.69 17.34 7.38 17 5 C17.99 5.33 18.98 5.66 20 6 C20.25 13.625 20.25 13.625 18 17 C17.05898437 16.25234375 16.11796875 15.5046875 15.1484375 14.734375 C13.89071956 13.73946379 12.63290173 12.74467883 11.375 11.75 C10.75753906 11.25886719 10.14007813 10.76773438 9.50390625 10.26171875 C5.77386883 7.31695237 1.99188555 4.5793722 -2 2 C-1.34 1.34 -0.68 0.68 0 0 Z " fill="#868485" transform="translate(177,187)"/>
<path d="M0 0 C3.44093263 1.73525543 6.35541153 3.98081544 9.3515625 6.375 C13.94603446 9.99993987 13.94603446 9.99993987 18.7265625 13.375 C19.3865625 11.065 20.0465625 8.755 20.7265625 6.375 C22.32736401 10.37700378 21.01935942 13.42056236 19.7265625 17.375 C13.81389964 13.47905936 7.97144262 9.48855121 2.1574707 5.44750977 C-0.30633292 3.7351345 -2.77678878 2.03943248 -5.2734375 0.375 C-2.2734375 -0.625 -2.2734375 -0.625 0 0 Z " fill="#8B898A" transform="translate(175.2734375,165.625)"/>
<path d="M0 0 C3 0 3 0 4.6875 1.375 C6 3 6 3 6 5 C6.54140625 5.2165625 7.0828125 5.433125 7.640625 5.65625 C10.81645344 7.46499997 13.20728081 9.91723799 15.75 12.5 C16.25660156 12.99886719 16.76320312 13.49773437 17.28515625 14.01171875 C21 17.74658861 21 17.74658861 21 20 C16.7333392 18.618055 14.37653107 16.67840213 11.3125 13.4375 C8.46343331 10.30453441 8.46343331 10.30453441 5 8 C5 7.34 5 6.68 5 6 C4.34 6 3.68 6 3 6 C0 2.53846154 0 2.53846154 0 0 Z " fill="#7E7B7C" transform="translate(138,219)"/>
<path d="M0 0 C1.33897583 0.95043374 2.67105427 1.91059147 4 2.875 C5.11375 3.67550781 5.11375 3.67550781 6.25 4.4921875 C6.8275 4.98976562 7.405 5.48734375 8 6 C8 6.66 8 7.32 8 8 C8.57492188 8.2578125 9.14984375 8.515625 9.7421875 8.78125 C12.19930438 10.10758299 14.04910129 11.63721637 16.125 13.5 C16.80820313 14.1084375 17.49140625 14.716875 18.1953125 15.34375 C19.49119988 16.53304924 20.75626434 17.75626434 22 19 C21.34 19 20.68 19 20 19 C19.67 19.66 19.34 20.32 19 21 C18.07058594 20.13117188 17.14117187 19.26234375 16.18359375 18.3671875 C14.93496419 17.20305167 13.6862624 16.03899332 12.4375 14.875 C11.82841797 14.30523437 11.21933594 13.73546875 10.59179688 13.1484375 C6.48236241 9.32166254 2.28527253 5.62896953 -2 2 C-1.34 1.34 -0.68 0.68 0 0 Z " fill="#7D7B7C" transform="translate(126,155)"/>
<path d="M0 0 C2.69873825 1.95945623 5.35738555 3.96549987 8 6 C8.75152344 6.57621094 9.50304687 7.15242187 10.27734375 7.74609375 C15.73653176 12.17859903 15.73653176 12.17859903 17.0625 16.3125 C17 19 17 19 16 21 C15.34 21 14.68 21 14 21 C14.0825 20.236875 14.165 19.47375 14.25 18.6875 C14.30342071 15.85583656 14.30342071 15.85583656 12 14.3125 C11.34 13.879375 10.68 13.44625 10 13 C10 12.34 10 11.68 10 11 C9.42765625 10.73445312 8.8553125 10.46890625 8.265625 10.1953125 C5.8923988 8.94323109 3.87786714 7.5063648 1.75 5.875 C1.04359375 5.33617187 0.3371875 4.79734375 -0.390625 4.2421875 C-0.92171875 3.83226562 -1.4528125 3.42234375 -2 3 C-1.34 2.67 -0.68 2.34 0 2 C0 1.34 0 0.68 0 0 Z " fill="#807E7E" transform="translate(171,226)"/>
<path d="M0 0 C0.33 0 0.66 0 1 0 C1 1.98 1 3.96 1 6 C3.5 5 3.5 5 5 1 C5 5.62 5 10.24 5 15 C4.34 15 3.68 15 3 15 C2.67 15.99 2.34 16.98 2 18 C1.34 17.67 0.68 17.34 0 17 C0 11.39 0 5.78 0 0 Z " fill="#F2797D" transform="translate(239,291)"/>
<path d="M0 0 C0.33 0 0.66 0 1 0 C1 8.91 1 17.82 1 27 C0.34 26.67 -0.32 26.34 -1 26 C-0.88398438 25.35933594 -0.76796875 24.71867187 -0.6484375 24.05859375 C-0.33978247 21.09991484 -0.28433077 18.90056528 -1 16 C-3.98289099 13.02234215 -7.3029185 10.99378324 -11 9 C-9.68 8.34 -8.36 7.68 -7 7 C-4.69 8.98 -2.38 10.96 0 13 C0 8.71 0 4.42 0 0 Z " fill="#C2A6A7" transform="translate(196,204)"/>
<path d="M0 0 C0.25007813 0.5775 0.50015625 1.155 0.7578125 1.75 C2.16681752 4.30216005 3.78111763 5.97723062 5.875 8 C6.89207031 8.99 6.89207031 8.99 7.9296875 10 C8.61289063 10.66 9.29609375 11.32 10 12 C11.33564213 13.33102053 12.66965284 14.66368716 14 16 C12.68 16.33 11.36 16.66 10 17 C9.7525 16.38125 9.505 15.7625 9.25 15.125 C7.74122612 12.5600844 6.66712781 12.21925843 4 11 C-0.77777778 7.44444444 -0.77777778 7.44444444 -2 5 C-1.34 5 -0.68 5 0 5 C0 3.35 0 1.7 0 0 Z " fill="#868484" transform="translate(86,115)"/>
<path d="M0 0 C0.99 0.33 1.98 0.66 3 1 C0.30291809 3.86054142 -2.44373499 6.47543296 -5.5625 8.875 C-6.12066406 9.30554688 -6.67882812 9.73609375 -7.25390625 10.1796875 C-9.52911849 11.24857916 -10.68271143 10.82144584 -13 10 C-12.34 10 -11.68 10 -11 10 C-10.67 9.01 -10.34 8.02 -10 7 C-7.8203125 5.140625 -7.8203125 5.140625 -5.125 3.25 C-4.24070313 2.61578125 -3.35640625 1.9815625 -2.4453125 1.328125 C-1.23488281 0.67070312 -1.23488281 0.67070312 0 0 Z " fill="#706D6E" transform="translate(193,247)"/>
<path d="M0 0 C3.34249629 0.59687434 5.46436342 1.73603877 8 4 C8 4.66 8 5.32 8 6 C9.32 6.66 10.64 7.32 12 8 C12 8.66 12 9.32 12 10 C8.39428893 9.40716913 6.45570562 7.97258223 3.75 5.5625 C3.04359375 4.94503906 2.3371875 4.32757813 1.609375 3.69140625 C0 2 0 2 0 0 Z " fill="#737071" transform="translate(114,146)"/>
<path d="M0 0 C0.99 0.33 1.98 0.66 3 1 C3.25 8.625 3.25 8.625 1 12 C-0.98 10.35 -2.96 8.7 -5 7 C-4.67 5.68 -4.34 4.36 -4 3 C-1.525 4.98 -1.525 4.98 1 7 C0.67 4.69 0.34 2.38 0 0 Z " fill="#B08F90" transform="translate(194,192)"/>
<path d="M0 0 C0.33 0.99 0.66 1.98 1 3 C2.99054876 3.69437747 4.99255385 4.35610218 7 5 C10.375 7 10.375 7 13 9 C13 9.66 13 10.32 13 11 C8.01679474 10.53282451 3.72995283 8.27618728 0 5 C-0.5 2.1875 -0.5 2.1875 0 0 Z " fill="#737071" transform="translate(164,177)"/>
<path d="M0 0 C3 4 6 8 9 12 C8.01 12.33 7.02 12.66 6 13 C4.79449706 11.78848458 3.61107253 10.55497111 2.4375 9.3125 C1.77621094 8.62800781 1.11492187 7.94351563 0.43359375 7.23828125 C-1 5 -1 5 -0.71484375 2.23046875 C-0.47894531 1.49441406 -0.24304688 0.75835937 0 0 Z " fill="#878586" transform="translate(131,207)"/>
<path d="M0 0 C1.2065625 0.0309375 1.2065625 0.0309375 2.4375 0.0625 C1.2928125 1.17625 1.2928125 1.17625 0.125 2.3125 C-4.43427686 6.97780656 -5.9239188 9.42125555 -6.5625 16.0625 C-6.8925 16.0625 -7.2225 16.0625 -7.5625 16.0625 C-8.07507038 9.65537031 -7.69847047 6.07579753 -3.5625 1.0625 C-2.5625 0.0625 -2.5625 0.0625 0 0 Z " fill="#F27579" transform="translate(365.5625,232.9375)"/>
<path d="M0 0 C1.1055189 0.93590504 2.20935453 1.87379858 3.3125 2.8125 C3.92738281 3.33457031 4.54226562 3.85664063 5.17578125 4.39453125 C6.85424679 5.87172469 8.43882034 7.40039131 10 9 C9.34 9 8.68 9 8 9 C7.67 9.66 7.34 10.32 7 11 C4 8 1 5 -2 2 C-1.34 2 -0.68 2 0 2 C0 1.34 0 0.68 0 0 Z " fill="#868485" transform="translate(157,197)"/>
<path d="M0 0 C3.38361519 0.61728115 5.52002561 1.86979718 8.25 3.9375 C8.95640625 4.46214844 9.6628125 4.98679688 10.390625 5.52734375 C11.18726563 6.25630859 11.18726563 6.25630859 12 7 C12 7.66 12 8.32 12 9 C7.50985376 7.50328459 3.52151236 5.16631659 0 2 C0 1.34 0 0.68 0 0 Z " fill="#767474" transform="translate(183,183)"/>
<path d="M0 0 C0.67095703 0.58007812 0.67095703 0.58007812 1.35546875 1.171875 C4.8521026 4.18390075 8.37407463 7.14321031 12 10 C11.34 10 10.68 10 10 10 C9.67 10.66 9.34 11.32 9 12 C5.7 9.03 2.4 6.06 -1 3 C-0.67 2.01 -0.34 1.02 0 0 Z " fill="#8B898A" transform="translate(136,164)"/>
<path d="M0 0 C1.1055189 0.93590504 2.20935453 1.87379858 3.3125 2.8125 C3.92738281 3.33457031 4.54226562 3.85664063 5.17578125 4.39453125 C8.51952278 7.3373102 8.51952278 7.3373102 10 9 C10 9.66 10 10.32 10 11 C6.96147295 9.59023295 4.4060405 7.91129772 1.75 5.875 C1.04359375 5.33617187 0.3371875 4.79734375 -0.390625 4.2421875 C-0.92171875 3.83226562 -1.4528125 3.42234375 -2 3 C-1.34 2.67 -0.68 2.34 0 2 C0 1.34 0 0.68 0 0 Z " fill="#A7A5A5" transform="translate(167,233)"/>
<path d="M0 0 C3.28754511 0.57889381 4.93672495 1.54828411 7.25 3.9375 C7.77078125 4.46214844 8.2915625 4.98679688 8.828125 5.52734375 C10 7 10 7 10 9 C6.71245489 8.42110619 5.06327505 7.45171589 2.75 5.0625 C2.22921875 4.53785156 1.7084375 4.01320312 1.171875 3.47265625 C0 2 0 2 0 0 Z " fill="#737071" transform="translate(157,226)"/>
<path d="M0 0 C0.7425 0.2475 1.485 0.495 2.25 0.75 C2.25 1.74 2.25 2.73 2.25 3.75 C1.46625 3.853125 0.6825 3.95625 -0.125 4.0625 C-3.08045181 4.52595022 -3.08045181 4.52595022 -4.75 7.75 C-5.74 8.245 -5.74 8.245 -6.75 8.75 C-7.11554789 5.46006898 -7.01218503 4.11900115 -5.0625 1.375 C-2.75 -0.25 -2.75 -0.25 0 0 Z " fill="#848283" transform="translate(169.75,172.25)"/>
<path d="M0 0 C6.86892178 -0.7230444 6.86892178 -0.7230444 10.08984375 1.3359375 C11.80497879 2.83010422 13.43160073 4.35318077 15 6 C14.01 6.66 13.02 7.32 12 8 C10.2925002 6.71937515 8.62626404 5.38232443 7 4 C7 3.34 7 2.68 7 2 C4.69 1.67 2.38 1.34 0 1 C0 0.67 0 0.34 0 0 Z " fill="#888686" transform="translate(71,129)"/>
<path d="M0 0 C2.00720923 0.28674418 4.0085944 0.61866701 6 1 C6.33 1.99 6.66 2.98 7 4 C6.34 4.66 5.68 5.32 5 6 C4.13375 5.4740625 4.13375 5.4740625 3.25 4.9375 C0.64198224 3.85082593 -0.39417629 4.06934867 -3 5 C-1.125 1.125 -1.125 1.125 0 0 Z " fill="#8B8989" transform="translate(142,201)"/>
<path d="M0 0 C-0.5259375 0.804375 -0.5259375 0.804375 -1.0625 1.625 C-2.28924249 4.73274763 -1.72856431 6.79431703 -1 10 C-2.32 9.67 -3.64 9.34 -5 9 C-5.6875 6.75 -5.6875 6.75 -6 4 C-3.83783784 0 -3.83783784 0 0 0 Z " fill="#767374" transform="translate(158,189)"/>
<path d="M0 0 C1.60080151 4.00200378 0.29279692 7.04556236 -1 11 C-3.64 9.35 -6.28 7.7 -9 6 C-8.01 5.34 -7.02 4.68 -6 4 C-4.68 4.99 -3.36 5.98 -2 7 C-1.34 4.69 -0.68 2.38 0 0 Z " fill="#C4B3B4" transform="translate(196,172)"/>
<path d="M0 0 C0.99 0.33 1.98 0.66 3 1 C2.04663979 2.31611677 1.08714226 3.62778961 0.125 4.9375 C-0.40867188 5.66839844 -0.94234375 6.39929688 -1.4921875 7.15234375 C-3 9 -3 9 -5 10 C-4.45276317 6.62537285 -3.9451 4.91765 -2 2 C-1.34 2 -0.68 2 0 2 C0 1.34 0 0.68 0 0 Z " fill="#716E6F" transform="translate(137,184)"/>
<path d="M0 0 C2.31 1.98 4.62 3.96 7 6 C6.01 7.485 6.01 7.485 5 9 C2.69 7.02 0.38 5.04 -2 3 C-1.34 2.67 -0.68 2.34 0 2 C0 1.34 0 0.68 0 0 Z " fill="#8B8889" transform="translate(159,237)"/>
<path d="M0 0 C2.03833424 1.2739589 4.03852126 2.61061923 6 4 C6 4.66 6 5.32 6 6 C6.66 6.33 7.32 6.66 8 7 C7.01 7.495 7.01 7.495 6 8 C3.36 6.02 0.72 4.04 -2 2 C-1.34 1.34 -0.68 0.68 0 0 Z " fill="#8E898A" transform="translate(189,225)"/>
<path d="M0 0 C2.4375 0.75 2.4375 0.75 5 2 C5.8125 4.125 5.8125 4.125 6 6 C6.66 6 7.32 6 8 6 C8 6.66 8 7.32 8 8 C5.04987143 6.63029745 2.4347778 5.17390875 0 3 C0 2.01 0 1.02 0 0 Z " fill="#757273" transform="translate(165,244)"/>
<path d="M0 0 C0.99 0 1.98 0 3 0 C7 4.34285714 7 4.34285714 7 7 C4.20171644 6.61402985 3.1794116 6.19863427 1.25 4.0625 C0 2 0 2 0 0 Z " fill="#6C696A" transform="translate(138,219)"/>
<path d="M0 0 C0.99 0.33 1.98 0.66 3 1 C2.34 3.31 1.68 5.62 1 8 C0.01 8 -0.98 8 -2 8 C-1.125 2.25 -1.125 2.25 0 0 Z " fill="#858383" transform="translate(131,192)"/>
<path d="M0 0 C3.65316671 1.24976756 4.78065836 1.67098753 7 5 C6.01 5.33 5.02 5.66 4 6 C0.8125 4.0625 0.8125 4.0625 -2 2 C-1.34 1.34 -0.68 0.68 0 0 Z " fill="#8A8889" transform="translate(158,187)"/>
<path d="M0 0 C1.98 1.65 3.96 3.3 6 5 C5.01 5.66 4.02 6.32 3 7 C1.35 5.35 -0.3 3.7 -2 2 C-1.34 2 -0.68 2 0 2 C0 1.34 0 0.68 0 0 Z " fill="#827F80" transform="translate(96,145)"/>
<path d="M0 0 C1.875 0.25 1.875 0.25 4 1 C5.25 3.0625 5.25 3.0625 6 5 C3.83125748 4.49396008 2.00032373 4.00016187 0 3 C0 2.01 0 1.02 0 0 Z " fill="#727070" transform="translate(165,206)"/>
<path d="M0 0 C0.99 0.33 1.98 0.66 3 1 C2.01 2.32 1.02 3.64 0 5 C-1.32 4.34 -2.64 3.68 -4 3 C-2.1875 1.4375 -2.1875 1.4375 0 0 Z " fill="#848282" transform="translate(193,247)"/>
<path d="M0 0 C1.875 0.25 1.875 0.25 4 1 C5.25 3.0625 5.25 3.0625 6 5 C4.125 4.75 4.125 4.75 2 4 C0.75 1.9375 0.75 1.9375 0 0 Z " fill="#7A7778" transform="translate(181,207)"/>
<path d="M0 0 C0.66 0.33 1.32 0.66 2 1 C-2.625 5.875 -2.625 5.875 -6 7 C-4.60667426 3.63279613 -3.0210714 2.0140476 0 0 Z " fill="#F38589" transform="translate(280,174)"/>
<path d="M0 0 C0.66 0.66 1.32 1.32 2 2 C1.625 5.125 1.625 5.125 1 8 C0.34 8 -0.32 8 -1 8 C-0.979375 7.21625 -0.95875 6.4325 -0.9375 5.625 C-0.81315937 3.01885039 -0.81315937 3.01885039 -2 1 C-1.34 0.67 -0.68 0.34 0 0 Z " fill="#B7B6B6" transform="translate(186,239)"/>
<path d="M0 0 C1.65 1.65 3.3 3.3 5 5 C4.01 5.33 3.02 5.66 2 6 C0.68 4.68 -0.64 3.36 -2 2 C-1.34 2 -0.68 2 0 2 C0 1.34 0 0.68 0 0 Z " fill="#8F8D8E" transform="translate(171,226)"/>
</svg>
